<?xml version="1.0" encoding="UTF-8"?>
<!DOCTYPE svg PUBLIC "-//W3C//DTD SVG 1.1//EN" "http://www.w3.org/Graphics/SVG/1.1/DTD/svg11.dtd">
<!-- Creator: CorelDRAW 2019 (64 Bit) -->
<svg xmlns="http://www.w3.org/2000/svg" xml:space="preserve" width="42.6068mm" height="41.5547mm" version="1.1" style="shape-rendering:geometricPrecision; text-rendering:geometricPrecision; image-rendering:optimizeQuality; fill-rule:evenodd; clip-rule:evenodd"
viewBox="0 0 578.65 564.36"
 xmlns:xlink="http://www.w3.org/1999/xlink">
 <defs>
  <style type="text/css">
   <![CDATA[
    .fil0 {fill:#323030}
    .fil1 {fill:#323030;fill-rule:nonzero}
   ]]>
  </style>
 </defs>
 <g id="Camada_x0020_1">
  <metadata id="CorelCorpID_0Corel-Layer"/>
  <path class="fil0" d="M289.33 0c-159.77,0 -289.33,129.53 -289.33,289.32 0,127.83 82.9,236.28 197.86,274.54 14.46,2.68 19.77,-6.28 19.77,-13.92 0,-6.9 -0.27,-29.69 -0.39,-53.87 -80.49,17.5 -97.47,-34.14 -97.47,-34.14 -13.16,-33.44 -32.12,-42.33 -32.12,-42.33 -26.25,-17.96 1.98,-17.59 1.98,-17.59 29.05,2.04 44.35,29.82 44.35,29.82 25.81,44.23 67.68,31.44 84.19,24.05 2.6,-18.7 10.09,-31.47 18.37,-38.69 -64.26,-7.32 -131.82,-32.12 -131.82,-142.99 0,-31.59 11.3,-57.4 29.81,-77.66 -3,-7.29 -12.91,-36.71 2.8,-76.57 0,0 24.3,-7.78 79.59,29.66 23.08,-6.41 47.83,-9.63 72.42,-9.74 24.59,0.11 49.36,3.33 72.48,9.74 55.22,-37.43 79.48,-29.66 79.48,-29.66 15.75,39.85 5.84,69.27 2.84,76.57 18.55,20.26 29.78,46.07 29.78,77.66 0,111.12 -67.68,135.59 -132.11,142.76 10.38,8.98 19.62,26.58 19.62,53.58 0,38.71 -0.34,69.87 -0.34,79.4 0,7.7 5.21,16.72 19.87,13.88 114.9,-38.3 197.69,-146.71 197.69,-274.5 0,-159.79 -129.54,-289.32 -289.32,-289.32z"/>
  <path class="fil1" d="M109.58 415.4c-0.64,1.44 -2.9,1.87 -4.96,0.88 -2.1,-0.94 -3.28,-2.9 -2.6,-4.35 0.62,-1.48 2.89,-1.89 4.98,-0.91 2.1,0.95 3.3,2.93 2.57,4.37l0 0z"/>
  <path class="fil1" d="M121.3 428.47c-1.38,1.28 -4.08,0.69 -5.91,-1.34 -1.89,-2.02 -2.25,-4.71 -0.85,-6.01 1.42,-1.28 4.04,-0.68 5.94,1.34 1.89,2.04 2.26,4.72 0.82,6.01l0 0z"/>
  <path class="fil1" d="M132.71 445.14c-1.77,1.23 -4.67,0.08 -6.46,-2.5 -1.77,-2.57 -1.77,-5.66 0.04,-6.89 1.8,-1.24 4.65,-0.12 6.47,2.43 1.77,2.62 1.77,5.7 -0.04,6.96l0 0z"/>
  <path class="fil1" d="M148.34 461.23c-1.59,1.75 -4.96,1.28 -7.44,-1.11 -2.53,-2.33 -3.24,-5.64 -1.64,-7.39 1.6,-1.75 5,-1.26 7.49,1.11 2.51,2.33 3.28,5.66 1.59,7.39l0 0z"/>
  <path class="fil1" d="M169.9 470.58c-0.7,2.27 -3.95,3.3 -7.23,2.33 -3.27,-0.99 -5.41,-3.65 -4.75,-5.94 0.68,-2.28 3.95,-3.35 7.25,-2.32 3.27,0.99 5.41,3.62 4.73,5.93l0 0z"/>
  <path class="fil1" d="M193.57 472.32c0.08,2.39 -2.7,4.36 -6.14,4.41 -3.46,0.08 -6.26,-1.86 -6.3,-4.2 0,-2.41 2.72,-4.37 6.18,-4.43 3.44,-0.07 6.26,1.85 6.26,4.22l0 0z"/>
  <path class="fil1" d="M215.61 468.56c0.41,2.33 -1.98,4.72 -5.39,5.36 -3.36,0.61 -6.47,-0.82 -6.89,-3.13 -0.42,-2.39 2.02,-4.78 5.37,-5.4 3.42,-0.59 6.48,0.81 6.92,3.17l0 0z"/>
 </g>
</svg>
